<svg width="22" height="23" viewBox="0 0 22 23" fill="none" xmlns="http://www.w3.org/2000/svg">
<g clip-path="url(#clip0_6_10)">
<path d="M11.3872 23H10.571C10.571 22.9494 10.5204 22.9586 10.4874 22.9517C9.95854 22.8442 9.47136 22.5771 9.086 22.1835C6.3272 19.3039 3.5706 16.4228 0.8162 13.5401C0.469548 13.1709 0.222817 12.7122 0.1012 12.2107C0.0616 12.0658 0.0858 11.9025 0 11.7691V11.2309C0.0462 11.2309 0.0396 11.178 0.044 11.1412C0.113342 10.4986 0.391333 9.90032 0.8316 9.4461C3.5772 6.5711 6.32353 3.6984 9.0706 0.828C9.40248 0.487202 9.80985 0.237521 10.2564 0.1012C10.3664 0.0884531 10.4732 0.0541192 10.571 0L11.3872 0C11.4004 0.0138 11.4136 0.0391 11.429 0.0391C12.0207 0.107389 12.5702 0.392585 12.98 0.8441C15.7256 3.7007 18.4653 6.56267 21.1992 9.43C21.4208 9.66339 21.6057 9.93198 21.747 10.2258C21.8441 10.4661 21.9285 10.7118 22 10.9618V12.0842C21.956 12.098 21.9626 12.1394 21.9538 12.1739C21.8381 12.6956 21.586 13.1734 21.2256 13.5539L12.98 22.1582C12.6433 22.5048 12.2299 22.7592 11.7766 22.8988C11.6433 22.9155 11.5125 22.9495 11.3872 23ZM7.9024 3.45C7.85316 3.52116 7.80028 3.58949 7.744 3.6547L1.6214 10.0441C0.7678 10.9388 0.7678 12.0543 1.6214 12.949L9.6426 21.3371C10.4852 22.2203 11.5588 22.218 12.408 21.3371L20.4292 12.9513C20.5281 12.8533 20.6194 12.7472 20.702 12.6339C20.968 12.2562 21.0912 11.7891 21.0482 11.3223C21.0052 10.8554 20.7989 10.4216 20.4688 10.1039C17.9036 7.41903 15.3369 4.7357 12.7688 2.0539C12.5972 1.8745 12.4278 1.6905 12.2496 1.518C11.9484 1.22559 11.5602 1.05025 11.1501 1.02136C10.74 0.992472 10.3328 1.11178 9.9968 1.3593C9.4776 1.7549 9.0772 2.2931 8.6284 2.7393L9.7284 3.8893C10.1735 3.59397 10.6986 3.45865 11.224 3.5039C11.7493 3.54915 12.2462 3.7725 12.639 4.14C13.4838 4.9496 13.6158 5.957 13.0592 7.3462L14.52 8.8803C14.8835 8.6389 15.3024 8.50438 15.7328 8.49087C16.1632 8.47737 16.5892 8.58539 16.9658 8.80357C17.3425 9.02175 17.6559 9.34202 17.8732 9.7307C18.0905 10.1194 18.2035 10.5621 18.2004 11.0122C18.1974 11.4624 18.0783 11.9034 17.8558 12.2888C17.6333 12.6742 17.3155 12.9898 16.9359 13.2023C16.5564 13.4149 16.129 13.5166 15.6988 13.4967C15.2686 13.4768 14.8515 13.3361 14.4914 13.0893C14.0114 12.771 13.6593 12.2802 13.5014 11.7093C13.402 11.3632 13.3762 10.9985 13.426 10.6409C13.4758 10.2833 13.5999 9.94141 13.7896 9.6393L12.3266 8.1098C12.0754 8.26668 11.8043 8.38591 11.5214 8.464V13.547C11.9424 13.6396 12.3317 13.849 12.6487 14.153C12.9657 14.4571 13.1986 14.8447 13.323 15.2752C13.4474 15.7057 13.4587 16.1633 13.3558 16.6C13.2529 17.0367 13.0395 17.4364 12.7381 17.7572C12.4366 18.078 12.0581 18.3081 11.6423 18.4234C11.2265 18.5387 10.7887 18.535 10.3747 18.4126C9.96077 18.2902 9.58595 18.0536 9.28955 17.7276C8.99314 17.4017 8.78605 16.9984 8.69 16.56C8.55616 15.9718 8.63449 15.3527 8.91 14.8212C9.07357 14.4966 9.3034 14.2136 9.58321 13.9922C9.86303 13.7709 10.186 13.6165 10.5292 13.5401V8.4548C10.1484 8.36639 9.79363 8.18305 9.4952 7.92038C9.19678 7.65772 8.96351 7.32353 8.81528 6.94628C8.66705 6.56903 8.60826 6.15991 8.6439 5.75378C8.67955 5.34765 8.80858 4.95655 9.02 4.6138L8.954 4.5402L7.9024 3.45ZM12.4586 6.0007C12.459 5.70486 12.3756 5.41551 12.2189 5.16918C12.0622 4.92286 11.8392 4.73059 11.578 4.61664C11.3169 4.5027 11.0293 4.47218 10.7516 4.52896C10.4738 4.58573 10.2184 4.72724 10.0176 4.93563C9.81671 5.14402 9.6794 5.40995 9.62297 5.69985C9.56654 5.98975 9.59352 6.29063 9.7005 6.56451C9.80749 6.8384 9.98969 7.07301 10.2241 7.23874C10.4585 7.40447 10.7346 7.49388 11.0176 7.4957C11.397 7.49274 11.7602 7.33464 12.0295 7.05523C12.2989 6.77583 12.4529 6.39732 12.4586 6.0007ZM11.011 17.48C11.2923 17.4814 11.5677 17.3955 11.8024 17.2333C12.0371 17.0712 12.2206 16.8399 12.3297 16.5688C12.4387 16.2977 12.4685 15.9988 12.4152 15.71C12.3619 15.4212 12.2279 15.1554 12.0302 14.9462C11.8325 14.7369 11.58 14.5936 11.3044 14.5343C11.0288 14.4751 10.7427 14.5025 10.482 14.6132C10.2213 14.7238 9.9979 14.9128 9.83989 15.1561C9.68187 15.3994 9.59638 15.6863 9.5942 15.9804C9.59244 16.3755 9.74059 16.7552 10.0062 17.0363C10.2717 17.3174 10.6331 17.477 11.011 17.48ZM15.84 9.5128C15.6526 9.50759 15.4662 9.5416 15.2916 9.61283C15.1169 9.68406 14.9577 9.79108 14.8233 9.92759C14.6888 10.0641 14.5818 10.2273 14.5086 10.4077C14.4353 10.5881 14.3973 10.7819 14.3968 10.9779C14.3925 11.2723 14.4718 11.5614 14.6246 11.8086C14.7775 12.0558 14.9971 12.2501 15.2556 12.3669C15.5141 12.4836 15.8 12.5176 16.0769 12.4644C16.3539 12.4113 16.6096 12.2734 16.8116 12.0683C17.0137 11.8633 17.153 11.6001 17.2119 11.3122C17.2708 11.0244 17.2468 10.7247 17.1428 10.4511C17.0388 10.1775 16.8594 9.94232 16.6276 9.7753C16.3957 9.60828 16.1216 9.51693 15.84 9.5128Z" fill="#493423"/>
</g>
<defs>
<clipPath id="clip0_6_10">
<rect width="22" height="23" fill="white"/>
</clipPath>
</defs>
</svg>
