<svg width="23" height="23" viewBox="0 0 23 23" fill="none" xmlns="http://www.w3.org/2000/svg">
<path d="M20.4456 23H1.83408C1.81395 22.9307 1.75133 22.9575 1.70659 22.9463C1.39514 22.8624 1.10442 22.7149 0.852692 22.5132C0.600959 22.3115 0.393655 22.06 0.243799 21.7743C0.138675 21.5797 0.111834 21.356 0 21.1659V2.46723C0.0738107 2.44039 0.0469704 2.36882 0.0603905 2.31961C0.20589 1.80571 0.521271 1.35629 0.955065 1.0447C1.23846 0.85802 1.5505 0.718998 1.87882 0.633148L20.4433 0.633148C20.4567 0.646568 20.4702 0.668935 20.4858 0.671172C21.0095 0.742821 21.4879 1.00671 21.8278 1.41152C22.0878 1.73327 22.272 2.10937 22.3669 2.51196V21.1659C22.3199 21.1659 22.3288 21.2174 22.3199 21.2509C22.2405 21.5785 22.0904 21.8847 21.8803 22.1482C21.6701 22.4117 21.4049 22.6261 21.1031 22.7763C20.889 22.8649 20.6693 22.9396 20.4456 23ZM12.2861 10.8682V9.60226H8.96688V19.6249H12.3018C12.3018 18.1173 12.3018 16.6255 12.3018 15.1336C12.3018 14.6035 12.2749 14.0734 12.3264 13.5411C12.3679 13.2201 12.4988 12.9172 12.704 12.6669C12.9092 12.4166 13.1806 12.2289 13.4872 12.1252C13.7903 12.0315 14.1141 12.0272 14.4196 12.1129C14.7251 12.1986 14.9993 12.3706 15.2095 12.6084C15.515 12.9638 15.6748 13.4216 15.6568 13.89V19.6249H19.0118V19.4012C19.0118 17.3971 19.0118 15.3908 19.0118 13.3823C19.0333 12.7396 18.8925 12.1019 18.6025 11.528C18.3124 10.9541 17.8824 10.4626 17.3522 10.0988C16.3278 9.38307 15.2207 9.13256 14.0151 9.57989C13.3323 9.84415 12.7346 10.2896 12.2861 10.8682ZM6.6944 19.6316V9.60002H3.37292V19.6316H6.6944ZM7.04333 5.66346C7.04606 5.39907 6.99574 5.13683 6.89535 4.89223C6.79496 4.64764 6.64653 4.42566 6.45884 4.23944C6.27116 4.05321 6.04803 3.90652 5.80266 3.80804C5.55729 3.70956 5.29466 3.6613 5.03031 3.6661C4.76739 3.66031 4.50602 3.70776 4.26192 3.80558C4.01781 3.90341 3.79601 4.04959 3.60985 4.23533C3.42368 4.42108 3.27701 4.64255 3.17864 4.88644C3.08026 5.13032 3.03223 5.39158 3.03742 5.65451C3.03075 5.91917 3.07766 6.18244 3.17534 6.42851C3.27301 6.67458 3.41943 6.89835 3.6058 7.08639C3.79216 7.27442 4.01462 7.42283 4.25981 7.5227C4.50499 7.62257 4.76784 7.67183 5.03254 7.66753C5.29605 7.66871 5.55719 7.61768 5.80087 7.51739C6.04455 7.41709 6.26595 7.26952 6.45228 7.08319C6.63861 6.89686 6.78618 6.67546 6.88648 6.43178C6.98677 6.1881 7.0378 5.92697 7.03661 5.66346H7.04333Z" fill="#493423"/>
</svg>
