<svg width="23" height="17" viewBox="0 0 23 17" fill="none" xmlns="http://www.w3.org/2000/svg">
<path d="M0 15.2989V1.49411C0.0469704 1.49411 0.0447337 1.4449 0.0536805 1.41135C0.308663 0.487598 1.13176 0 2.05551 0C8.14079 0.0164024 14.2261 0.0164024 20.3113 0C20.4053 0 20.5015 0 20.5954 0C20.8502 0.0155288 21.0992 0.0830753 21.3269 0.198477C21.5546 0.313879 21.7563 0.474692 21.9195 0.671006C22.1172 0.934223 22.2684 1.22922 22.3669 1.54331V15.2989C22.3199 15.2989 22.3221 15.3504 22.3132 15.3817C22.0582 16.3077 21.2351 16.7975 20.3002 16.7953C14.2141 16.7774 8.13035 16.7953 2.04433 16.7953C1.9571 16.7953 1.86763 16.7953 1.78264 16.7953C1.46117 16.7835 1.14817 16.689 0.873897 16.5209C0.599623 16.3529 0.373353 16.1168 0.216959 15.8357C0.129728 15.6568 0.123018 15.4555 0 15.2989ZM20.6961 0.970722H1.72001L1.69317 1.01769C1.73791 1.05124 1.78711 1.08032 1.82737 1.11611L10.4431 8.97135C10.5433 9.06654 10.6553 9.14848 10.7764 9.21515C11.1633 9.41869 11.5212 9.3404 11.9394 8.95793C14.4535 6.67054 16.9653 4.38092 19.4748 2.08907C19.8707 1.72896 20.2644 1.36662 20.6961 0.970722ZM1.65738 15.8178H20.7095C18.2424 13.4939 15.8268 11.1834 13.2949 9.00714C13.0332 9.2308 12.7827 9.47237 12.5254 9.70051C11.6755 10.4543 10.6936 10.4543 9.84142 9.70051C9.58196 9.47684 9.32475 9.23751 9.072 9.00714C6.53336 11.1969 4.11774 13.4939 1.65738 15.8178ZM0.972959 1.61265V15.167C3.42884 12.8475 5.83775 10.5572 8.36744 8.36521L0.972959 1.61265ZM21.3984 15.1692V1.61041L13.9972 8.36744C16.5291 10.5572 18.938 12.8453 21.3984 15.1692Z" fill="#493423"/>
</svg>
