<svg width="23" height="21" viewBox="0 0 23 21" fill="none" xmlns="http://www.w3.org/2000/svg">
<path d="M0 12.2489V8.75449C0.0750746 8.53759 0.174121 8.32974 0.295302 8.13481C0.434596 7.94975 0.611029 7.79584 0.813287 7.68296C1.01555 7.57008 1.23916 7.50072 1.4698 7.47933C2.10063 5.47208 3.33296 3.70714 4.99999 2.4234C5.1991 2.26904 5.39149 2.27352 5.51901 2.4234C5.55041 2.46156 5.573 2.50618 5.58515 2.55408C5.59731 2.60198 5.59874 2.65197 5.58933 2.70049C5.57993 2.749 5.55993 2.79484 5.53075 2.83473C5.50158 2.87462 5.46396 2.90757 5.42057 2.93123C4.977 3.2738 4.56383 3.65404 4.18568 4.0677C4.14988 4.10573 4.08053 4.13034 4.11633 4.21535C5.32885 4.21535 6.54362 4.21535 7.75838 4.21535C7.87918 4.21535 7.91945 4.15047 7.96867 4.0677C8.40582 3.32132 8.90338 2.61201 9.45636 1.94689C9.70692 1.64936 9.97314 1.363 10.2528 1.05204H10.1454C10.0803 1.05317 10.0154 1.05765 9.95077 1.06546C8.87933 1.21274 7.83981 1.53707 6.87471 2.02519C6.59283 2.16837 6.40491 2.13705 6.30872 1.94018C6.21252 1.74332 6.30872 1.57106 6.57046 1.43012L6.61073 1.41222C8.54257 0.431229 10.739 0.0986229 12.8747 0.463675C14.9394 0.79733 16.8464 1.77351 18.3244 3.25338C19.4765 4.38088 20.3391 5.77002 20.8389 7.30259C20.8507 7.36023 20.8812 7.41234 20.9257 7.45079C20.9702 7.48924 21.0262 7.51186 21.085 7.51512C21.4041 7.57034 21.6968 7.72729 21.9194 7.96255C22.1404 8.20014 22.2947 8.49184 22.3669 8.80818V12.2489C22.2909 12.4654 22.1919 12.6732 22.0716 12.8686C21.9326 13.0526 21.7568 13.2055 21.5553 13.3176C21.3538 13.4298 21.1311 13.4985 20.9015 13.5196C20.3218 15.3972 19.2078 17.0654 17.6957 18.3205C17.6634 18.3531 17.6246 18.3787 17.5819 18.3957C17.5391 18.4126 17.4934 18.4205 17.4474 18.419C17.4015 18.4174 17.3564 18.4063 17.3149 18.3864C17.2734 18.3665 17.2366 18.3383 17.2065 18.3035C17.1765 18.2687 17.154 18.228 17.1405 18.1841C17.1269 18.1402 17.1226 18.0939 17.1278 18.0482C17.133 18.0026 17.1475 17.9584 17.1706 17.9187C17.1936 17.8789 17.2247 17.8443 17.2617 17.8171C17.3378 17.7478 17.4183 17.6851 17.4854 17.6158C17.7805 17.355 18.0585 17.0755 18.3176 16.7791H14.5883C14.5563 16.7764 14.5241 16.7838 14.4965 16.8002C14.4688 16.8166 14.4469 16.8413 14.434 16.8708C13.7881 17.9859 13.0058 19.0162 12.1051 19.9379C12.199 19.9447 12.2932 19.9447 12.387 19.9379C13.6488 19.7768 14.8658 19.3654 15.9664 18.7276C16.0293 18.6827 16.1059 18.661 16.183 18.6663C16.2602 18.6716 16.3331 18.7036 16.3892 18.7567C16.4372 18.8008 16.4704 18.8586 16.4844 18.9222C16.4984 18.9859 16.4925 19.0523 16.4675 19.1124C16.4245 19.213 16.3444 19.2931 16.2438 19.3361C14.9254 20.0919 13.4532 20.54 11.9373 20.6471C10.2776 20.7865 8.6098 20.5001 7.09171 19.8149C5.78171 19.2455 4.60788 18.4038 3.64822 17.3458C2.68856 16.2877 1.96503 15.0376 1.52573 13.6784C1.51398 13.6272 1.48572 13.5813 1.44529 13.5477C1.40486 13.5142 1.35451 13.4948 1.30201 13.4927C0.999221 13.4446 0.717861 13.3067 0.494407 13.0968C0.259879 12.861 0.0896643 12.5691 0 12.2489H0ZM11.1857 8.15047H1.73378C1.01566 8.15047 0.65548 8.50841 0.65548 9.21758V11.7903C0.65548 12.4995 1.0179 12.8484 1.73378 12.8484H20.6487C21.349 12.8484 21.7159 12.4838 21.7159 11.7925V9.24442C21.7159 8.49051 21.3669 8.14599 20.5973 8.14599L11.1857 8.15047ZM7.15883 7.47933H15.2125C15.2161 7.45635 15.2161 7.43295 15.2125 7.40997C14.9321 6.57978 14.5842 5.77395 14.1722 5.00058C14.1163 4.89991 14.047 4.90215 13.9485 4.90215C12.1066 4.90215 10.2647 4.90215 8.42281 4.90215C8.37565 4.89865 8.32859 4.91019 8.28839 4.93511C8.2482 4.96004 8.21694 4.99705 8.1991 5.04085C7.9888 5.45472 7.78299 5.86859 7.60402 6.29588C7.43142 6.68083 7.28274 7.07606 7.15883 7.47933ZM7.15883 13.5196C7.15597 13.5471 7.15597 13.5748 7.15883 13.6024C7.44063 14.4241 7.78697 15.2223 8.19462 15.9894C8.25279 16.1012 8.32885 16.099 8.41833 16.099C10.2528 16.099 12.0872 16.099 13.9217 16.099C13.9741 16.1051 14.0271 16.094 14.0727 16.0673C14.1183 16.0407 14.154 16 14.1745 15.9514C14.4971 15.3361 14.7803 14.7009 15.0224 14.0498C15.1078 13.8818 15.1717 13.7036 15.2125 13.5196H7.15883ZM20.2013 13.5196C18.7919 13.5196 17.4206 13.5196 16.0447 13.5196C15.9194 13.5196 15.9083 13.5956 15.8814 13.6784C15.6256 14.4628 15.3099 15.2264 14.9373 15.9625C14.915 16.005 14.868 16.0453 14.915 16.108H18.7517C18.7873 16.1117 18.8233 16.1056 18.8557 16.0902C18.888 16.0748 18.9155 16.0507 18.9351 16.0207C19.4789 15.2544 19.9057 14.4115 20.2013 13.5196ZM20.2013 7.47933C19.9081 6.61191 19.4938 5.79023 18.9709 5.03861C18.9417 4.99044 18.8996 4.95134 18.8494 4.92566C18.7993 4.89998 18.743 4.88875 18.6868 4.8932C17.4787 4.8932 16.2707 4.8932 15.0626 4.8932C15.0067 4.8932 14.9485 4.87083 14.9015 4.9111C14.9015 4.92228 14.9015 4.93123 14.9015 4.9357C15.3009 5.72407 15.6383 6.54235 15.9105 7.38313C15.9373 7.46814 15.9843 7.47485 16.0537 7.47485L20.2013 7.47933ZM2.17897 7.45695C2.20581 7.46814 2.217 7.47709 2.23042 7.47709C3.5906 7.47709 4.95078 7.47709 6.31319 7.47709C6.44742 7.47709 6.46308 7.40103 6.49216 7.31154C6.7035 6.65661 6.95912 6.01681 7.25726 5.39655C7.33332 5.23548 7.41162 5.07664 7.50335 4.88872H7.25726C6.22371 4.88872 5.19015 4.92676 4.15883 4.87306C3.94138 4.843 3.72007 4.88516 3.52891 4.99307C3.33774 5.10098 3.18729 5.26867 3.10067 5.47038C2.73208 6.10468 2.4235 6.772 2.17897 7.46367V7.45695ZM2.17002 13.5196C2.46358 14.388 2.87858 15.2105 3.40268 15.9625C3.43183 16.0107 3.47393 16.0496 3.52418 16.0749C3.57442 16.1002 3.63077 16.1109 3.6868 16.1057C4.89485 16.1057 6.1029 16.1057 7.31095 16.1057C7.36464 16.1057 7.42505 16.1281 7.48769 16.0722C7.07763 15.2739 6.73563 14.4425 6.46532 13.5867C6.44071 13.5106 6.38254 13.5173 6.32661 13.5173L2.17002 13.5196ZM12.1141 1.03862C12.1656 1.11011 12.2208 1.17882 12.2796 1.24443C13.0849 2.09471 13.7891 3.03534 14.3781 4.04756C14.4038 4.10554 14.4469 4.1541 14.5014 4.18656C14.5559 4.21901 14.6191 4.23376 14.6823 4.22877C15.8188 4.22877 16.953 4.22877 18.0895 4.22877C18.1476 4.22877 18.217 4.25562 18.2886 4.18627C16.7025 2.39401 14.4962 1.2693 12.1141 1.03862ZM10.2349 19.9156C10.208 19.8842 10.1834 19.8529 10.1543 19.8238C9.31673 18.9528 8.58736 17.9838 7.98209 16.9379C7.95583 16.884 7.91365 16.8394 7.86124 16.8102C7.80883 16.781 7.74872 16.7686 7.68903 16.7746C6.5548 16.7746 5.41834 16.7746 4.28187 16.7746C4.22371 16.7746 4.15436 16.7455 4.08501 16.8194C5.65818 18.6069 7.862 19.7164 10.2349 19.9156ZM11.1857 1.1035C10.2071 2.01566 9.36073 3.06005 8.67113 4.2064H13.7024C13.0127 3.05956 12.1655 2.01509 11.1857 1.1035ZM13.7002 16.7992H8.67113C9.36124 17.9445 10.2076 18.9881 11.1857 19.8999C12.1638 18.9881 13.0101 17.9445 13.7002 16.7992Z" fill="#493423"/>
<path d="M7.22817 10.7612C7.43399 10.2019 7.62414 9.68738 7.81206 9.17284C7.82438 9.12799 7.84595 9.08622 7.87538 9.05021C7.90481 9.0142 7.94145 8.98475 7.98294 8.96374C8.02444 8.94274 8.06986 8.93065 8.11631 8.92826C8.16275 8.92586 8.20918 8.93321 8.25262 8.94983C8.29605 8.96645 8.33553 8.99198 8.36851 9.02477C8.40149 9.05756 8.42724 9.09688 8.44411 9.14022C8.46098 9.18356 8.4686 9.22995 8.46647 9.2764C8.46434 9.32286 8.45251 9.36836 8.43175 9.40997C8.14092 10.2109 7.84935 11.0125 7.55703 11.8149C7.53994 11.8898 7.49734 11.9564 7.43653 12.0033C7.37572 12.0503 7.30048 12.0746 7.2237 12.0722C7.14684 12.0713 7.07258 12.0442 7.0132 11.9953C6.95381 11.9465 6.91285 11.8789 6.89708 11.8037C6.73153 11.3406 6.55703 10.882 6.38925 10.4189C6.37135 10.3719 6.36911 10.3182 6.30871 10.2847C6.1275 10.7791 5.94629 11.2713 5.76956 11.7657C5.70916 11.9335 5.62862 12.0699 5.42504 12.0744C5.22146 12.0789 5.13421 11.9402 5.07381 11.7746C4.79193 10.9916 4.50782 10.2086 4.22818 9.43011C4.2028 9.38762 4.18715 9.34004 4.18232 9.29078C4.1775 9.24153 4.18363 9.19182 4.20028 9.14521C4.21692 9.0986 4.24367 9.05625 4.27861 9.0212C4.31354 8.98614 4.3558 8.95925 4.40235 8.94245C4.4489 8.92564 4.49859 8.91934 4.54786 8.924C4.59713 8.92865 4.64476 8.94415 4.68734 8.96937C4.72992 8.9946 4.76639 9.02893 4.79414 9.06991C4.82189 9.11089 4.84024 9.15749 4.84786 9.20639C5.0246 9.68067 5.19685 10.1549 5.36911 10.6314C5.36911 10.6561 5.38925 10.6829 5.40938 10.7276C5.47342 10.6489 5.51788 10.5562 5.53914 10.457C5.6935 10.0431 5.84115 9.62698 5.98656 9.21311C6.00214 9.13559 6.04408 9.06585 6.10526 9.01575C6.16643 8.96565 6.24306 8.93827 6.32213 8.93827C6.4012 8.93827 6.47784 8.96565 6.53901 9.01575C6.60018 9.06585 6.64212 9.13559 6.6577 9.21311C6.84115 9.71646 7.02683 10.2086 7.22817 10.7612Z" fill="#493423"/>
<path d="M11.1857 10.2422C10.9821 10.7948 10.7986 11.2869 10.6219 11.7836C10.5637 11.9469 10.4787 12.0699 10.2886 12.0722C10.0984 12.0744 10.0067 11.9603 9.9463 11.7948C9.65994 11.0006 9.36688 10.2064 9.08053 9.40997C9.06028 9.36789 9.0491 9.32202 9.04771 9.27534C9.04632 9.22866 9.05476 9.18221 9.07248 9.13899C9.09019 9.09578 9.11679 9.05678 9.15054 9.0245C9.1843 8.99223 9.22446 8.96741 9.26843 8.95165C9.31239 8.9359 9.35917 8.92955 9.40575 8.93303C9.45232 8.93652 9.49764 8.94974 9.53877 8.97186C9.5799 8.99398 9.61593 9.0245 9.64451 9.06143C9.67309 9.09837 9.69359 9.14089 9.70469 9.18626C9.87918 9.65382 10.0492 10.1214 10.2215 10.5912C10.2349 10.6314 10.255 10.6695 10.2863 10.7433C10.4787 10.2198 10.6599 9.72988 10.8344 9.23995C10.8971 9.06322 10.9799 8.9178 11.1946 8.92228C11.4094 8.92675 11.4765 9.06769 11.5347 9.23548C11.7114 9.72541 11.8904 10.2153 12.0738 10.7187C12.1496 10.6219 12.201 10.5084 12.2237 10.3876C12.3781 9.98939 12.5168 9.58447 12.6711 9.18626C12.6804 9.13832 12.7 9.09297 12.7286 9.05338C12.7572 9.0138 12.794 8.98093 12.8367 8.95707C12.8793 8.93322 12.9266 8.91894 12.9752 8.91525C13.0239 8.91156 13.0728 8.91854 13.1186 8.9357C13.1644 8.95284 13.2059 8.97959 13.2405 9.01416C13.2751 9.04872 13.3019 9.0903 13.3191 9.13609C13.3363 9.18188 13.3434 9.23081 13.3401 9.2796C13.3367 9.32839 13.323 9.37589 13.2998 9.41892C13.0156 10.2086 12.7271 10.9849 12.4407 11.7858C12.427 11.8698 12.3825 11.9456 12.3159 11.9985C12.2493 12.0515 12.1654 12.0777 12.0805 12.0722C11.8926 12.0722 11.8054 11.9491 11.7472 11.7836C11.5727 11.2825 11.3892 10.7948 11.1857 10.2422Z" fill="#493423"/>
<path d="M16.9485 10.7657L17.4765 9.32049C17.4944 9.27351 17.5078 9.22429 17.5257 9.17731C17.5383 9.13352 17.5594 9.09265 17.5879 9.05703C17.6163 9.02141 17.6514 8.99174 17.6913 8.96972C17.7312 8.9477 17.7751 8.93375 17.8203 8.92868C17.8656 8.92361 17.9115 8.92752 17.9552 8.94018C18.0004 8.95558 18.0419 8.98027 18.077 9.01265C18.1121 9.04504 18.14 9.08442 18.159 9.12824C18.1779 9.17207 18.1875 9.21937 18.1871 9.26712C18.1867 9.31487 18.1763 9.36201 18.1566 9.4055C17.8658 10.2153 17.566 11.0229 17.2617 11.8306C17.2424 11.9014 17.2 11.9639 17.1413 12.008C17.0826 12.0521 17.0108 12.0755 16.9373 12.0744C16.8605 12.0739 16.7861 12.0476 16.7261 11.9998C16.666 11.9519 16.6238 11.8852 16.6063 11.8104C16.4206 11.3026 16.2371 10.7925 16.038 10.2444C15.8948 10.6337 15.7629 10.9849 15.6353 11.3361C15.5727 11.5039 15.5168 11.6762 15.4497 11.8462C15.4281 11.9142 15.3855 11.9735 15.328 12.0156C15.2705 12.0578 15.201 12.0805 15.1297 12.0805C15.0585 12.0805 14.989 12.0578 14.9315 12.0156C14.874 11.9735 14.8314 11.9142 14.8098 11.8462C14.5116 11.0319 14.2133 10.2161 13.915 9.39879C13.8962 9.35743 13.886 9.31264 13.8853 9.2672C13.8845 9.22177 13.8931 9.17666 13.9105 9.13469C13.9279 9.09272 13.9538 9.05478 13.9865 9.02324C14.0192 8.9917 14.0581 8.96723 14.1007 8.95136C14.1436 8.93513 14.1894 8.92812 14.2352 8.93079C14.281 8.93346 14.3257 8.94575 14.3665 8.96685C14.4072 8.98796 14.443 9.01741 14.4716 9.05329C14.5002 9.08916 14.5209 9.13066 14.5324 9.17507C14.7114 9.64711 14.8814 10.1236 15.0559 10.6001C15.0693 10.6404 15.0895 10.6784 15.123 10.7567C15.2528 10.4055 15.3714 10.0856 15.4877 9.76791C15.557 9.57776 15.6286 9.3876 15.6957 9.19745C15.7123 9.12193 15.7546 9.05453 15.8155 9.00678C15.8763 8.95903 15.9518 8.9339 16.0291 8.9357C16.106 8.9373 16.1802 8.96461 16.2398 9.01326C16.2994 9.06191 16.341 9.12912 16.3579 9.20416C16.5548 9.69856 16.745 10.1997 16.9485 10.7657Z" fill="#493423"/>
</svg>
