<svg width="789" height="542" viewBox="0 0 789 542" fill="none" xmlns="http://www.w3.org/2000/svg">
<line x1="29" y1="1" x2="759" y2="1" stroke="#493423" stroke-width="2"/>
<line x1="29" y1="540" x2="759" y2="540" stroke="#493423" stroke-width="2"/>
<line x1="2" y1="30" x2="1.99998" y2="513" stroke="#493423" stroke-width="2"/>
<line x1="788" y1="30" x2="788" y2="513" stroke="#493423" stroke-width="2"/>
<path d="M1 30C15 29 28.5 16.5 29 2" stroke="#493423" stroke-width="2"/>
<path d="M29 541C28 527 15.5 513.5 0.999999 513" stroke="#493423" stroke-width="2"/>
<path d="M787 513C773 514 759.5 526.5 759 541" stroke="#493423" stroke-width="2"/>
<path d="M759 2C760 16 772.5 29.5 787 30" stroke="#493423" stroke-width="2"/>
<g clip-path="url(#clip0_11_51)">
<path d="M15.0043 0.0521608V0.257894C14.948 0.27528 14.9668 0.323091 14.9639 0.360761C14.8877 1.3389 14.5063 2.26809 13.874 3.01635C13.2416 3.7646 12.3904 4.29389 11.4412 4.52903C11.2318 4.58119 11.0182 4.61741 10.7727 4.66667C12.9181 4.9376 14.4687 6.38208 14.9033 8.48143C14.9437 8.67847 14.9206 8.88565 15.0043 9.074V9.61151C14.9105 9.85346 14.9235 10.1157 14.86 10.3649C14.6212 11.4051 14.0357 12.3324 13.2003 12.9931C12.3648 13.6539 11.3296 14.0086 10.266 13.9986C8.815 13.9986 7.36259 13.9986 5.91018 13.9986C5.64894 14.0012 5.38775 13.9901 5.12767 13.9652C4.00168 13.8397 2.96034 13.3052 2.19999 12.4623C1.43964 11.6195 1.01282 10.5267 1 9.38984V4.65218C0.995063 3.71509 1.27277 2.79843 1.79663 2.02267C2.3205 1.24692 3.06599 0.648371 3.93514 0.305705C4.48284 0.0682604 5.08008 -0.0312156 5.67485 0.0159402V3.91183C5.85231 2.92249 6.33453 2.01392 7.05363 1.31409C7.85202 0.543313 8.79623 0.0463655 9.91513 0.0202867C11.5393 -0.0188316 13.1621 0.0101449 14.7863 0.0101449C14.8236 0.00236875 14.8621 0.00207784 14.8995 0.00928895C14.9369 0.0165 14.9726 0.0310706 15.0043 0.0521608ZM5.68785 5.41282V9.31015H9.63649C7.46943 8.83784 6.16717 7.54114 5.68351 5.40992L5.68785 5.41282Z" fill="#493423"/>
</g>
<g clip-path="url(#clip1_11_51)">
<path d="M789.004 2.05216V2.25789C788.948 2.27528 788.967 2.32309 788.964 2.36076C788.888 3.3389 788.506 4.26809 787.874 5.01635C787.242 5.7646 786.39 6.29389 785.441 6.52903C785.232 6.58119 785.018 6.61741 784.773 6.66667C786.918 6.9376 788.469 8.38208 788.903 10.4814C788.944 10.6785 788.921 10.8856 789.004 11.074V11.6115C788.91 11.8535 788.923 12.1157 788.86 12.3649C788.621 13.4051 788.036 14.3324 787.2 14.9931C786.365 15.6539 785.33 16.0086 784.266 15.9986C782.815 15.9986 781.363 15.9986 779.91 15.9986C779.649 16.0012 779.388 15.9901 779.128 15.9652C778.002 15.8397 776.96 15.3052 776.2 14.4623C775.44 13.6195 775.013 12.5267 775 11.3898V6.65218C774.995 5.71509 775.273 4.79843 775.797 4.02267C776.32 3.24692 777.066 2.64837 777.935 2.30571C778.483 2.06826 779.08 1.96878 779.675 2.01594V5.91183C779.852 4.92249 780.335 4.01392 781.054 3.31409C781.852 2.54331 782.796 2.04637 783.915 2.02029C785.539 1.98117 787.162 2.01014 788.786 2.01014C788.824 2.00237 788.862 2.00208 788.899 2.00929C788.937 2.0165 788.973 2.03107 789.004 2.05216ZM779.688 7.41282V11.3102H783.636C781.469 10.8378 780.167 9.54114 779.683 7.40992L779.688 7.41282Z" fill="#493423"/>
</g>
<g clip-path="url(#clip2_11_51)">
<path d="M789.004 527.052V527.258C788.948 527.275 788.967 527.323 788.964 527.361C788.888 528.339 788.506 529.268 787.874 530.016C787.242 530.765 786.39 531.294 785.441 531.529C785.232 531.581 785.018 531.617 784.773 531.667C786.918 531.938 788.469 533.382 788.903 535.481C788.944 535.678 788.921 535.886 789.004 536.074V536.612C788.91 536.853 788.923 537.116 788.86 537.365C788.621 538.405 788.036 539.332 787.2 539.993C786.365 540.654 785.33 541.009 784.266 540.999C782.815 540.999 781.363 540.999 779.91 540.999C779.649 541.001 779.388 540.99 779.128 540.965C778.002 540.84 776.96 540.305 776.2 539.462C775.44 538.62 775.013 537.527 775 536.39V531.652C774.995 530.715 775.273 529.798 775.797 529.023C776.32 528.247 777.066 527.648 777.935 527.306C778.483 527.068 779.08 526.969 779.675 527.016V530.912C779.852 529.922 780.335 529.014 781.054 528.314C781.852 527.543 782.796 527.046 783.915 527.02C785.539 526.981 787.162 527.01 788.786 527.01C788.824 527.002 788.862 527.002 788.899 527.009C788.937 527.017 788.973 527.031 789.004 527.052ZM779.688 532.413V536.31H783.636C781.469 535.838 780.167 534.541 779.683 532.41L779.688 532.413Z" fill="#493423"/>
</g>
<g clip-path="url(#clip3_11_51)">
<path d="M15.0043 527.052V527.258C14.948 527.275 14.9668 527.323 14.9639 527.361C14.8877 528.339 14.5063 529.268 13.874 530.016C13.2416 530.765 12.3904 531.294 11.4412 531.529C11.2318 531.581 11.0182 531.617 10.7727 531.667C12.9181 531.938 14.4687 533.382 14.9033 535.481C14.9437 535.678 14.9206 535.886 15.0043 536.074V536.612C14.9105 536.853 14.9235 537.116 14.86 537.365C14.6212 538.405 14.0357 539.332 13.2003 539.993C12.3648 540.654 11.3296 541.009 10.266 540.999C8.815 540.999 7.36259 540.999 5.91018 540.999C5.64894 541.001 5.38775 540.99 5.12767 540.965C4.00168 540.84 2.96034 540.305 2.19999 539.462C1.43964 538.62 1.01282 537.527 1 536.39V531.652C0.995063 530.715 1.27277 529.798 1.79663 529.023C2.3205 528.247 3.06599 527.648 3.93514 527.306C4.48284 527.068 5.08008 526.969 5.67485 527.016V530.912C5.85231 529.922 6.33453 529.014 7.05363 528.314C7.85202 527.543 8.79623 527.046 9.91513 527.02C11.5393 526.981 13.1621 527.01 14.7863 527.01C14.8236 527.002 14.8621 527.002 14.8995 527.009C14.9369 527.017 14.9726 527.031 15.0043 527.052ZM5.68785 532.413V536.31H9.63649C7.46943 535.838 6.16717 534.541 5.68351 532.41L5.68785 532.413Z" fill="#493423"/>
</g>
<defs>
<clipPath id="clip0_11_51">
<rect width="14" height="14" fill="white" transform="translate(1)"/>
</clipPath>
<clipPath id="clip1_11_51">
<rect width="14" height="14" fill="white" transform="translate(775 2)"/>
</clipPath>
<clipPath id="clip2_11_51">
<rect width="14" height="14" fill="white" transform="translate(775 527)"/>
</clipPath>
<clipPath id="clip3_11_51">
<rect width="14" height="14" fill="white" transform="translate(1 527)"/>
</clipPath>
</defs>
</svg>
